# xmcd
#
# Track frame offsets:
#	200
#	14127
#	31115
#	43082
#	55622
#	65865
#	77330
#	87202
#	96617
#	105417
#	119905
#	130980
#
# Disc length: 1933
#
# Revision: 2
# Processed by: cddbd v1.5.1PL0 Copyright (c) Steve Scherf et al.
# Submitted via: ExactAudioCopy v0.95a3
# Normalized: r0:TSWAP
#
DISCID=a4078b0c
DTITLE=Various Artist - Two Texas Trubadours
DYEAR=1998
DGENRE=Tex-Mex
TTITLE0=Freedy Fender - Cielito Lindo
TTITLE1=Freddy Fender - Secret Love
TTITLE2=Freddy Fender - Before The Next Teardrop Falls
TTITLE3=Freddy Fender - Rancho Grande
TTITLE4=Freddy Fender - Cold Cold Heart
TTITLE5=Freddy Fender - Crazy Baby
TTITLE6=Country Roland - Thanks A Lot
TTITLE7=Country Roland - It Makes No Difference Now
TTITLE8=Country Roland - Waltz Across Texas
TTITLE9=Country Roland - There's A Tear In My Bear
TTITLE10=Country Roland - Truck Driving Man
TTITLE11=Country Roland - I Love You Because
EXTD=
EXTT0=
EXTT1=
EXTT2=
EXTT3=
EXTT4=
EXTT5=
EXTT6=
EXTT7=
EXTT8=
EXTT9=
EXTT10=
EXTT11=
PLAYORDER=
